<!DOCTYPE svg PUBLIC "-//W3C//DTD SVG 20010904//EN" "http://www.w3.org/TR/2001/REC-SVG-20010904/DTD/svg10.dtd">
<svg version="1.0" xmlns="http://www.w3.org/2000/svg" width="200px" height="200px" viewBox="0 0 2000 2000" preserveAspectRatio="xMidYMid meet">
<g id="layer101" fill="#3a3a3a" stroke="none">
<path d="M129 1391 c-24 -25 -29 -38 -29 -79 0 -40 5 -54 26 -75 42 -42 112 -48 159 -13 19 14 19 15 1 35 -17 18 -20 19 -42 5 -28 -19 -59 -11 -80 21 -34 52 29 106 87 75 17 -10 24 -9 37 4 14 14 14 17 -3 36 -14 15 -31 20 -72 20 -47 0 -59 -4 -84 -29z"/>
<path d="M320 1335 l0 -84 55 0 c49 1 55 3 55 23 0 12 -9 25 -22 31 -19 8 -24 19 -26 63 -3 50 -4 52 -33 52 l-29 0 0 -85z"/>
<path d="M450 1335 c0 -84 0 -85 25 -85 25 0 25 1 25 85 0 84 0 85 -25 85 -25 0 -25 -1 -25 -85z"/>
<path d="M531 1411 c-10 -7 -11 -13 -2 -30 10 -17 16 -19 31 -11 23 12 50 13 50 2 0 -5 -17 -13 -37 -18 -35 -8 -38 -12 -41 -47 -3 -33 0 -38 25 -48 26 -10 98 -7 110 4 2 3 0 15 -6 26 -9 16 -16 19 -35 12 -12 -5 -29 -6 -36 -1 -8 5 -2 10 21 15 19 4 40 12 47 17 19 16 15 66 -7 78 -24 12 -101 13 -120 1z"/>
<path d="M690 1335 l0 -85 30 0 30 0 0 85 0 85 -30 0 -30 0 0 -85z"/>
<path d="M781 1411 c-8 -5 -11 -16 -7 -29 6 -18 11 -20 32 -12 33 13 54 13 54 0 0 -5 -10 -10 -23 -10 -33 0 -67 -28 -67 -55 0 -31 35 -55 80 -55 44 0 63 12 58 36 -3 15 -11 18 -43 17 -37 -3 -38 -2 -15 8 14 6 35 15 48 20 26 10 30 50 6 73 -17 17 -99 22 -123 7z"/>
<path d="M974 1402 c-53 -42 -59 -114 -15 -164 26 -30 35 -33 84 -33 40 0 61 5 76 19 20 18 20 21 5 37 -15 16 -19 17 -37 4 -29 -20 -53 -19 -77 5 -25 25 -26 62 -2 83 22 20 63 22 80 5 9 -9 16 -7 33 8 l21 19 -22 17 c-30 24 -117 24 -146 0z"/>
<path d="M1160 1305 l0 -115 25 0 c22 0 25 4 25 33 0 32 1 32 38 29 60 -5 76 14 80 97 l4 71 -31 0 c-31 0 -31 0 -31 -55 0 -40 -4 -57 -15 -61 -27 -11 -45 16 -45 67 0 46 -2 49 -25 49 l-25 0 0 -115z"/>
<path d="M1375 1395 c-25 -24 -32 -65 -19 -100 8 -20 56 -45 88 -45 32 0 73 37 82 73 l6 27 -63 0 c-59 0 -62 1 -47 17 14 13 22 14 42 5 20 -9 27 -7 41 8 16 17 15 19 -4 29 -37 20 -100 13 -126 -14z m90 -85 c-3 -5 -15 -10 -25 -10 -10 0 -22 5 -25 10 -4 6 7 10 25 10 18 0 29 -4 25 -10z"/>
<path d="M1562 1397 c-33 -35 -30 -99 4 -126 40 -32 124 -22 138 15 8 22 -30 37 -54 22 -39 -25 -77 23 -44 56 14 15 19 15 38 2 18 -11 26 -12 45 -1 l24 12 -22 22 c-30 30 -100 29 -129 -2z"/>
<path d="M1720 1305 l0 -115 30 0 c30 0 30 0 30 57 l0 57 28 -27 c26 -25 92 -39 92 -20 0 4 -14 22 -31 39 l-32 33 32 38 c17 20 31 41 31 45 0 5 -14 8 -31 8 -21 0 -37 -8 -51 -25 -11 -14 -24 -25 -29 -25 -5 0 -9 11 -9 25 0 21 -5 25 -30 25 l-30 0 0 -115z"/>
<path d="M444 1226 c-11 -28 4 -48 33 -44 22 2 28 8 28 28 0 20 -6 26 -28 28 -18 2 -29 -2 -33 -12z"/>
<path d="M694 1226 c-10 -26 4 -48 28 -44 17 2 23 10 23 28 0 18 -6 26 -23 28 -13 2 -25 -3 -28 -12z"/>
</g>
<g id="layer102" fill="#ff7248" stroke="none">
<path d="M1242 1110 c-33 -38 -48 -49 -63 -45 -11 4 -33 0 -50 -9 -28 -14 -36 -13 -97 6 -37 11 -75 29 -85 39 -30 32 -87 17 -87 -24 -1 -33 -42 -58 -92 -55 -36 3 -47 9 -67 37 -13 18 -27 45 -30 60 -6 19 -14 26 -32 26 -31 0 -38 -33 -12 -54 41 -33 63 -77 56 -111 -5 -26 -15 -36 -52 -53 -25 -11 -61 -21 -80 -21 -63 -2 -69 -67 -7 -74 20 -3 29 2 33 16 2 11 26 29 54 43 49 22 51 22 80 5 17 -10 40 -16 52 -12 27 7 97 -57 97 -89 0 -27 -111 -77 -153 -68 -35 7 -57 -12 -57 -49 0 -49 74 -57 87 -9 4 15 134 81 160 81 17 0 64 -96 66 -134 2 -26 7 -32 30 -34 20 -2 29 2 35 16 11 30 108 102 137 102 18 0 28 7 34 24 11 29 116 90 135 79 32 -19 84 -72 88 -89 4 -24 56 -26 71 -2 14 21 -7 48 -37 48 -11 1 -41 19 -64 40 l-44 39 62 82 c33 45 59 88 56 95 -8 20 -35 17 -43 -3 -3 -10 -29 -51 -56 -90 -38 -55 -65 -81 -109 -108 -33 -19 -64 -35 -69 -35 -5 0 -9 37 -9 83 0 71 3 84 20 95 13 8 20 23 20 45 0 39 43 87 78 87 26 0 40 26 25 49 -18 29 -37 22 -81 -29z m-199 -86 c81 -25 78 -44 -18 -128 -66 -58 -79 -65 -96 -55 -12 6 -23 8 -27 5 -3 -4 -23 10 -44 31 -67 65 -43 142 45 143 24 0 40 5 43 15 4 9 14 14 23 11 9 -3 42 -12 74 -22z m107 -163 c0 -58 -4 -82 -15 -91 -8 -7 -15 -18 -15 -25 0 -12 -74 -79 -108 -99 -18 -11 -66 99 -55 128 9 25 161 165 181 165 8 1 12 -21 12 -78z"/>
</g>
<g id="layer103" fill="#ff8f49" stroke="none">
<path d="M617 1144 c-12 -12 -8 -44 7 -50 8 -3 26 -23 40 -44 38 -58 28 -96 -33 -123 -25 -11 -61 -21 -80 -21 -63 -2 -69 -67 -7 -74 20 -3 29 2 33 16 2 11 26 29 54 43 49 22 51 22 80 5 20 -12 39 -16 56 -11 21 5 33 -1 59 -26 21 -21 34 -43 34 -59 0 -22 -9 -29 -64 -53 -44 -19 -72 -26 -90 -21 -34 8 -56 -10 -56 -48 0 -49 74 -57 87 -9 4 15 134 81 160 81 15 0 76 -117 68 -129 -3 -5 -2 -16 1 -25 9 -23 53 -20 62 3 9 25 100 99 126 103 19 3 20 11 21 186 1 124 -2 182 -9 182 -6 0 -24 -7 -40 -15 -27 -14 -35 -14 -95 6 -36 12 -74 30 -84 40 -10 11 -26 19 -37 19 -24 0 -50 -26 -50 -50 0 -26 -59 -61 -83 -49 -10 6 -26 9 -35 7 -19 -4 -60 48 -71 91 -7 25 -39 40 -54 25z m414 -116 c69 -22 92 -47 66 -72 -7 -6 -42 -37 -79 -69 -59 -51 -70 -57 -89 -47 -11 7 -23 9 -27 6 -3 -4 -23 10 -44 31 -67 65 -43 142 45 143 24 0 40 5 43 15 8 19 5 19 85 -7z m106 -257 c-8 -9 -17 -25 -21 -36 -5 -17 -53 -58 -103 -88 -19 -12 -67 97 -56 128 4 12 49 58 98 101 l90 78 3 -83 c2 -61 -1 -88 -11 -100z"/>
</g>
<g id="layer104" fill="#ffad49" stroke="none">
<path d="M617 1144 c-12 -12 -8 -43 7 -51 24 -13 76 -92 66 -98 -6 -3 -10 -15 -10 -26 0 -25 -96 -71 -129 -62 -41 11 -69 -40 -36 -67 18 -15 65 -5 65 13 0 7 24 24 53 39 53 26 53 26 77 6 17 -14 33 -18 55 -14 26 5 36 1 62 -26 17 -18 33 -46 36 -63 3 -23 4 -21 6 13 1 31 4 41 14 36 6 -4 -5 11 -25 32 -28 29 -38 49 -38 71 0 36 38 82 61 75 8 -2 5 3 -6 11 -18 14 -23 14 -50 -3 -22 -14 -35 -16 -48 -9 -10 6 -25 9 -35 7 -20 -4 -69 57 -74 93 -3 24 -36 38 -51 23z"/>
<path d="M790 744 c-37 -17 -62 -23 -85 -18 -38 7 -58 -12 -53 -53 3 -25 7 -28 38 -28 26 0 37 5 45 22 5 13 34 32 72 49 35 14 63 30 63 34 0 19 -31 17 -80 -6z"/>
</g>


</svg>